#!OML:ASF E:\acrobat2\Project_11_07_03\Capture day 1\Session 1\Acrobat.ASF
:FULLY-SPECIFIED
:DEGREES
317
root 12.8064 16.2246 7.34598 22.8919 3.2055 4.77599
lowerback 21.3723 0.0320572 0.327857
upperback 7.28529 0.0748081 -0.978713
thorax -4.01301 0.0607044 -1.25249
lowerneck 1.97775 -2.01138 0.439727
upperneck -27.056 -2.39031 1.73618
head -8.72221 -1.35615 0.705325
rclavicle -3.97569e-015 8.34896e-015
rhumerus -39.4659 -34.4225 -64.9901
rradius 13.1996
rwrist -0.801024
rhand -11.011 -43.704
rfingers 7.12502
rthumb 15.0099 -73.14
lclavicle -3.97569e-015 8.34896e-015
lhumerus -36.6726 -5.9415 76.377
lradius 5.30389
lwrist 10.8967
lhand -20.2797 -8.82701
lfingers 7.12502
lthumb 6.0698 21.066
rfemur -74.2364 -8.69383 11.355
rtibia 94.187
rfoot -37.5164 -6.3113
rtoes 6.30602
lfemur -82.3161 -0.589653 -15.5808
ltibia 90.3339
lfoot -22.9581 -18.3716
ltoes 14.3926
318
root 12.8239 16.2523 7.35202 21.2666 2.72053 4.50185
lowerback 21.3706 -0.149571 0.416033
upperback 7.47676 -0.143361 -1.00379
thorax -3.81085 -0.0439324 -1.27637
lowerneck 1.86874 -1.79547 0.54435
upperneck -26.1126 -2.15177 1.44523
head -8.38125 -1.22323 0.558348
rclavicle -7.55382e-015 7.95139e-015
rhumerus -30.4109 -31.283 -72.3712
rradius 14.944
rwrist -5.65323
rhand -11.5724 -44.3488
rfingers 7.12502
rthumb 14.469 -73.8244
lclavicle -7.55382e-015 7.95139e-015
lhumerus -31.0455 -6.78387 77.8966
lradius 6.88219
lwrist 10.2603
lhand -19.5461 -9.52939
lfingers 7.12502
lthumb 6.77797 20.3421
rfemur -72.1132 -8.15676 11.237
rtibia 93.5968
rfoot -37.2691 -6.00161
rtoes 6.02068
lfemur -80.2905 -0.868264 -15.2298
ltibia 90.3692
lfoot -23.626 -17.4453
ltoes 12.8176
319
root 12.8444 16.2853 7.34804 19.513 2.15606 4.2725
lowerback 21.3909 -0.311342 0.475577
upperback 7.6841 -0.344419 -1.06763
thorax -3.60295 -0.140098 -1.3302
lowerneck 1.62366 -1.62838 0.690824
upperneck -25.0099 -1.97703 1.16409
head -7.96589 -1.1254 0.413158
rclavicle -5.56597e-015 1.59028e-015
rhumerus -22.2025 -27.5636 -78.3345
rradius 16.9908
rwrist -9.76886
rhand -11.8924 -44.8441
rfingers 7.12502
rthumb 14.1607 -74.3415
lclavicle -5.56597e-015 1.59028e-015
lhumerus -25.239 -7.8893 79.0811
lradius 8.76188
lwrist 9.46038
lhand -18.7 -10.1753
lfingers 7.12502
lthumb 7.59474 19.6684
rfemur -69.9046 -7.64551 11.0455
rtibia 92.9642
rfoot -36.919 -5.44331
rtoes 6.19128
lfemur -78.1009 -1.12753 -14.9889
ltibia 90.3398
lfoot -24.2137 -16.5125
ltoes 11.2882
320
root 12.8676 16.3212 7.33525 17.6839 1.54331 4.07978
lowerback 21.4295 -0.452904 0.525791
upperback 7.8928 -0.523601 -1.16478
thorax -3.40305 -0.225407 -1.4201
lowerneck 1.1566 -1.4986 0.844223
upperneck -23.7214 -1.84301 0.940556
head -7.45462 -1.05203 0.289129
rclavicle -3.18055e-015 -6.75868e-015
rhumerus -14.6937 -23.6389 -83
rradius 19.1967
rwrist -13.1987
rhand -12.047 -45.0668
rfingers 7.12502
rthumb 14.0117 -74.5745
lclavicle -3.18055e-015 -6.75868e-015
lhumerus -19.1902 -9.22703 79.8898
lradius 10.7834
lwrist 8.72012
lhand -17.931 -11.0211
lfingers 7.12502
lthumb 8.33693 18.7944
rfemur -67.6768 -7.18077 10.812
rtibia 92.3102
rfoot -36.4444 -4.70754
rtoes 6.66975
lfemur -75.8081 -1.36811 -14.8348
ltibia 90.2407
lfoot -24.6918 -15.6117
ltoes 10.0828
321
root 12.8942 16.3618 7.31954 15.7877 0.786501 3.86197
lowerback 21.4827 -0.529155 0.583745
upperback 8.10556 -0.619953 -1.29227
thorax -3.20455 -0.269967 -1.56682
lowerneck 0.481449 -1.39684 0.996882
upperneck -22.3127 -1.73747 0.780206
head -6.87573 -0.996447 0.188924
rclavicle 6.16232e-015 -7.95139e-015
rhumerus -7.65701 -19.769 -86.5803
rradius 21.4041
rwrist -16.0987
rhand -12.0143 -45.0575
rfingers 7.12502
rthumb 14.0432 -74.5631
lclavicle 6.16232e-015 -7.95139e-015
lhumerus -13.1381 -14.9725 81.2946
lradius 12.9984
lwrist 12.5884
lhand -18.2058 -11.8322
lfingers 7.12502
lthumb 8.07175 17.9937
rfemur -65.4179 -6.6382 10.5921
rtibia 91.6093
rfoot -35.8453 -3.95139
rtoes 7.01155
lfemur -73.3694 -1.47591 -14.7249
ltibia 90.063
lfoot -25.1062 -14.7616
ltoes 9.23819
322
root 12.9213 16.4017 7.29612 13.9796 0.0764283 3.68336
lowerback 21.4972 -0.601297 0.647853
upperback 8.26444 -0.710787 -1.43169
thorax -3.04518 -0.311832 -1.73131
lowerneck -0.482517 -1.26338 1.02062
upperneck -20.7056 -1.56314 0.81971
head -6.19072 -0.909497 0.170602
rclavicle -8.34896e-015 3.8763e-015
rhumerus -0.969951 -15.939 -89.2396
rradius 23.6088
rwrist -18.8463
rhand -11.961 -44.5931
rfingers 7.12502
rthumb 14.0946 -74.0951
lclavicle -8.34896e-015 3.8763e-015
lhumerus -6.67594 -19.5605 81.1293
lradius 15.4128
lwrist 15.5357
lhand -18.6449 -12.7526
lfingers 7.12502
lthumb 7.64793 17.0891
rfemur -63.3051 -6.21406 10.3857
rtibia 90.903
rfoot -35.1213 -3.15953
rtoes 7.42261
lfemur -71.0451 -1.6095 -14.6544
ltibia 89.8138
lfoot -25.385 -13.9513
ltoes 8.80108
323
root 12.9493 16.4436 7.26947 12.2581 -0.65171 3.53106
lowerback 21.5004 -0.643073 0.69353
upperback 8.36244 -0.767523 -1.58269
thorax -2.94503 -0.337724 -1.90573
lowerneck -1.41793 -1.13569 1.02449
upperneck -19.2584 -1.38053 0.981508
head -5.57238 -0.823091 0.197925
rclavicle 7.95139e-016 -1.18277e-014
rhumerus 5.45012 -12.2132 -91.0651
rradius 25.8073
rwrist -21.6651
rhand -11.9112 -44.0447
rfingers 7.12502
rthumb 14.1425 -73.5434
lclavicle 7.95139e-016 -1.18277e-014
lhumerus 0.441918 -22.5684 79.8786
lradius 17.4583
lwrist 17.6711
lhand -19.3217 -14.3263
lfingers 7.12502
lthumb 6.99457 15.5381
rfemur -61.3027 -5.83466 10.1903
rtibia 90.1597
rfoot -34.304 -2.40308
rtoes 7.72272
lfemur -68.7895 -1.70613 -14.6272
ltibia 89.4859
lfoot -25.583 -13.1784
ltoes 8.66101
324
root 12.9771 16.4858 7.23925 10.6945 -1.34574 3.40677
lowerback 21.4687 -0.67395 0.719886
upperback 8.38113 -0.814452 -1.7301
thorax -2.91277 -0.360026 -2.06754
lowerneck -2.23479 -1.01485 0.978279
upperneck -18.0982 -1.18842 1.29643
head -5.07087 -0.736031 0.285278
rclavicle 3.52843e-015 4.07509e-015
rhumerus 11.6951 -8.64996 -92.1148
rradius 27.9951
rwrist -24.6222
rhand -12.0082 -43.2324
rfingers 7.12502
rthumb 14.0491 -72.7376
lclavicle 3.52843e-015 4.07509e-015
lhumerus 7.8944 -24.3249 78.05
lradius 19.4611
lwrist 19.4983
lhand -19.9071 -15.9032
lfingers 7.12502
lthumb 6.4295 13.9792
rfemur -59.4844 -5.54193 10.0172
rtibia 89.3896
rfoot -33.4208 -1.65473
rtoes 8.05829
lfemur -66.7088 -1.79105 -14.6266
ltibia 89.0903
lfoot -25.6795 -12.4461
ltoes 8.74898
325
root 13.0044 16.5289 7.20774 9.32251 -1.99543 3.29991
lowerback 21.3856 -0.706927 0.720399
upperback 8.32386 -0.869009 -1.86419
thorax -2.93681 -0.387591 -2.19854
lowerneck -2.99499 -0.907862 0.937972
upperneck -16.8529 -1.01851 1.65758
head -5.10044 -0.654214 0.440933
rclavicle 1.27098e-014 9.38015e-015
rhumerus 17.8197 -5.26139 -92.4172
rradius 30.2276
rwrist -27.6421
rhand -12.2061 -42.3381
rfingers 7.12502
rthumb 13.8584 -71.8564
lclavicle 1.27098e-014 9.38015e-015
lhumerus 15.4505 -25.089 75.9942
lradius 21.5218
lwrist 21.2494
lhand -20.3831 -17.4265
lfingers 7.12502
lthumb 5.96997 12.4694
rfemur -57.8622 -5.33236 9.87706
rtibia 88.5801
rfoot -32.5029 -0.892175
rtoes 8.5242
lfemur -64.8381 -1.85654 -14.6394
ltibia 88.6315
lfoot -25.6688 -11.7543
ltoes 9.00791
326
root 13.0312 16.5742 7.17846 8.16884 -2.62897 3.19287
lowerback 21.2217 -0.743203 0.689715
upperback 8.19675 -0.933433 -1.97712
thorax -2.99553 -0.421651 -2.28682
lowerneck -3.42092 -0.809274 0.871693
upperneck -16.5606 -0.837933 2.09877
head -4.90424 -0.578681 0.591762
rclavicle 9.93923e-015 2.45499e-014
rhumerus 23.9044 -2.16917 -92.0354
rradius 32.4738
rwrist -30.6322
rhand -12.4797 -41.3949
rfingers 7.12502
rthumb 13.5947 -70.9311
lclavicle 9.93923e-015 2.45499e-014
lhumerus 22.9312 -25.1246 73.886
lradius 23.6997
lwrist 22.9098
lhand -20.6568 -18.8244
lfingers 7.12502
lthumb 5.70571 11.0787
rfemur -56.4481 -5.17544 9.78463
rtibia 87.7171
rfoot -31.5632 -0.133728
rtoes 9.10107
lfemur -63.1909 -1.86057 -14.6528
ltibia 88.1139
lfoot -25.5555 -11.0957
ltoes 9.32905
327
root 13.0574 16.6238 7.15484 7.2487 -3.27077 3.0655
lowerback 20.9458 -0.782528 0.638762
upperback 8.00922 -1.00459 -2.05979
thorax -3.06214 -0.46034 -2.32983
lowerneck -3.70021 -0.714885 0.791931
upperneck -16.6071 -0.659223 2.52675
head -4.86811 -0.505726 0.74532
rclavicle -4.47266e-015 5.96354e-015
rhumerus 29.9745 0.579697 -90.9645
rradius 34.7441
rwrist -33.5816
rhand -12.7376 -40.6161
rfingers 7.12502
rthumb 13.3461 -70.1686
lclavicle -4.47266e-015 5.96354e-015
lhumerus 30.2302 -24.7118 71.7251
lradius 26.0042
lwrist 24.4797
lhand -20.836 -20.2524
lfingers 7.12502
lthumb 5.53271 9.65537
rfemur -55.2378 -5.04028 9.75704
rtibia 86.7722
rfoot -30.5826 0.616755
rtoes 9.89383
lfemur -61.7608 -1.77624 -14.6459
ltibia 87.5296
lfoot -25.3216 -10.4705
ltoes 9.73202
328
root 13.0823 16.6801 7.13858 6.54317 -3.88288 2.92792
lowerback 20.5737 -0.841728 0.556957
upperback 7.77432 -1.10496 -2.101
thorax -3.13028 -0.514574 -2.30471
lowerneck -3.81794 -0.633437 0.713965
upperneck -16.9714 -0.498814 2.88202
head -4.98586 -0.44339 0.880198
rclavicle -3.67752e-015 1.19271e-015
rhumerus 36.0467 2.87472 -89.2402
rradius 37.0288
rwrist -36.5803
rhand -13.0015 -40.1777
rfingers 7.12502
rthumb 13.0918 -69.7468
lclavicle -3.67752e-015 1.19271e-015
lhumerus 37.245 -23.9764 69.4786
lradius 28.4999
lwrist 25.8246
lhand -20.9608 -21.6299
lfingers 7.12502
lthumb 5.41218 8.28094
rfemur -54.1701 -4.95357 9.78823
rtibia 85.7208
rfoot -29.5653 1.32157
rtoes 10.7832
lfemur -60.5103 -1.65011 -14.6216
ltibia 86.8598
lfoot -24.9412 -9.8747
ltoes 10.2887
329
root 13.1078 16.7513 7.13838 5.97512 -4.65786 2.73552
lowerback 20.0933 -0.856929 0.472271
upperback 7.53158 -1.14717 -2.11254
thorax -3.14684 -0.540449 -2.26056
lowerneck -3.65925 -0.560568 0.563484
upperneck -18.0778 -0.316665 3.28435
head -4.8232 -0.390508 0.937817
rclavicle -2.78299e-015 -1.23246e-014
rhumerus 42.108 4.56761 -86.9528
rradius 39.2807
rwrist -39.7073
rhand -13.2946 -39.7468
rfingers 7.12502
rthumb 12.8092 -69.3338
lclavicle -2.78299e-015 -1.23246e-014
lhumerus 43.879 -22.879 67.2285
lradius 31.1094
lwrist 26.7865
lhand -21.0612 -23.0301
lfingers 7.12502
lthumb 5.3153 6.88321
rfemur -53.1242 -4.7209 9.90591
rtibia 84.5
rfoot -28.5198 1.90138
rtoes 11.3937
lfemur -59.2309 -1.33328 -14.5608
ltibia 86.065
lfoot -24.4898 -9.27736
ltoes 10.9001
330
root 13.1315 16.8375 7.14938 5.57661 -5.42557 2.52848
lowerback 19.5343 -0.887908 0.420219
upperback 7.24587 -1.20246 -2.1159
thorax -3.16798 -0.572369 -2.22421
lowerneck -3.53037 -0.521546 0.399063
upperneck -18.8249 -0.200889 3.60623
head -5.07625 -0.354973 1.06795
rclavicle -5.1684e-015 -1.59028e-015
rhumerus 48.0668 5.50085 -84.2926
rradius 41.4746
rwrist -42.8664
rhand -13.6545 -39.2254
rfingers 7.12502
rthumb 12.4622 -68.8339
lclavicle -5.1684e-015 -1.59028e-015
lhumerus 50.0545 -21.53 64.9102
lradius 33.7926
lwrist 27.3991
lhand -21.1925 -24.3198
lfingers 7.12502
lthumb 5.18845 5.5967
rfemur -52.1202 -4.512 10.0849
rtibia 83.1137
rfoot -27.4212 2.39827
rtoes 11.9458
lfemur -58.0159 -0.988257 -14.4802
ltibia 85.1254
lfoot -23.9231 -8.62549
ltoes 11.4361
